<svg width="61" height="60" viewBox="0 0 61 60" fill="none" xmlns="http://www.w3.org/2000/svg">
<g clip-path="url(#clip0_117_1239)">
<path d="M57.1195 21.2611C56.3278 18.8096 56.6653 15.1295 54.6075 12.2881C52.5335 9.42425 48.9263 8.61027 46.8895 7.12058C44.8741 5.6466 42.9991 2.43906 39.609 1.33281C36.3145 0.25773 32.9456 1.7166 30.3335 1.7166C27.7217 1.7166 24.3531 0.257378 21.058 1.33269C17.6685 2.43871 15.7919 5.64695 13.7778 7.12023C11.7432 8.60816 8.13338 9.42437 6.05975 12.2877C4.00369 15.1268 4.33779 18.8153 3.54748 21.261C2.79537 23.5887 0.333496 26.3823 0.333496 30.0002C0.333496 33.6202 2.79256 36.403 3.54748 38.7392C4.3392 41.1907 4.0017 44.8708 6.05951 47.7122C8.13338 50.5762 11.7404 51.39 13.7775 52.8798C15.7925 54.3536 17.6679 57.5614 21.058 58.6675C24.3503 59.7419 27.7244 58.2837 30.3335 58.2837C32.9389 58.2837 36.321 59.7403 39.609 58.6676C42.9987 57.5616 44.874 54.3541 46.8892 52.8801C48.9238 51.3921 52.5336 50.5759 54.6072 47.7126C56.6634 44.8734 56.3291 41.1852 57.1195 38.7393C57.8716 36.4115 60.3335 33.6178 60.3335 30.0002C60.3335 26.3803 57.875 23.5983 57.1195 21.2611ZM52.6592 37.2979C51.7364 40.1543 51.9781 43.3511 50.811 44.9629C49.6281 46.5961 46.5204 47.3421 44.1224 49.0962C41.7506 50.8307 40.0883 53.5803 38.1549 54.2111C36.3259 54.808 33.3451 53.596 30.3336 53.596C27.3001 53.596 24.35 54.8106 22.5122 54.2111C20.579 53.5803 18.9191 50.8326 16.5447 49.0961C14.1609 47.3527 11.0355 46.5913 9.85604 44.9627C8.6926 43.3562 8.92521 40.1373 8.00799 37.298C7.10893 34.5161 5.021 32.1073 5.021 30.0002C5.021 27.8909 7.10705 25.4904 8.00775 22.7024C8.9306 19.8461 8.68885 16.6491 9.85604 15.0374C11.0382 13.4052 14.1483 12.6568 16.5447 10.9041C18.924 9.16398 20.5759 6.42097 22.5119 5.78921C24.3395 5.19296 27.33 6.40433 30.3334 6.40433C33.3724 6.40433 36.3151 5.18886 38.1548 5.78921C40.0877 6.41992 41.7491 9.16867 44.1224 10.9042C46.5058 12.6476 49.6315 13.409 50.811 15.0375C51.9746 16.6443 51.7407 19.8599 52.659 22.7022V22.7023C53.5581 25.4842 55.646 27.893 55.646 30.0002C55.646 32.1094 53.5599 34.5099 52.6592 37.2979ZM41.1315 22.4773C42.0469 23.3927 42.0469 24.8766 41.1315 25.7918L29.4003 37.523C28.485 38.4384 27.0009 38.4382 26.0857 37.523L19.5356 30.9729C18.6203 30.0576 18.6201 28.5736 19.5355 27.6584C20.4508 26.7432 21.935 26.743 22.85 27.6584L27.7429 32.5512L37.8167 22.4774C38.7321 21.5621 40.2162 21.5621 41.1315 22.4773Z" fill="#242424"/>
</g>
<defs>
<clipPath id="clip0_117_1239">
<rect width="60" height="60" fill="white" transform="translate(0.333496)"/>
</clipPath>
</defs>
</svg>
