<svg width="28" height="30" viewBox="0 0 28 30" fill="none" xmlns="http://www.w3.org/2000/svg">
<path d="M23.625 7.49524H20.125V5.21607C20.125 4.21039 19.3402 3.39274 18.375 3.39274H9.625C8.65977 3.39274 7.875 4.21039 7.875 5.21607V7.49524H4.375C3.89102 7.49524 3.5 7.90264 3.5 8.40691V9.31857C3.5 9.44393 3.59844 9.54649 3.71875 9.54649H5.37031L6.0457 24.4465C6.08945 25.418 6.86055 26.1844 7.79297 26.1844H20.207C21.1422 26.1844 21.9105 25.4209 21.9543 24.4465L22.6297 9.54649H24.2812C24.4016 9.54649 24.5 9.44393 24.5 9.31857V8.40691C24.5 7.90264 24.109 7.49524 23.625 7.49524ZM18.1562 7.49524H9.84375V5.44399H18.1562V7.49524Z" fill="#B88E2F"/>
</svg>
