<svg width="20" height="21" viewBox="0 0 20 21" fill="none" xmlns="http://www.w3.org/2000/svg">
<path fill-rule="evenodd" clip-rule="evenodd" d="M10.0286 0.588745C4.52161 0.588745 0.0571289 5.02218 0.0571289 10.4908C0.0571289 15.9595 4.52161 20.3929 10.0286 20.3929C15.5355 20.3929 20 15.9595 20 10.4908C20 5.02218 15.5355 0.588745 10.0286 0.588745ZM13.3889 8.42669C13.5541 8.25692 13.6454 8.02953 13.6434 7.7935C13.6413 7.55747 13.546 7.33169 13.3779 7.16479C13.2098 6.99789 12.9825 6.90322 12.7448 6.90117C12.5071 6.89912 12.2781 6.98985 12.1071 7.15383L10.0286 9.21796L7.94997 7.15383C7.86635 7.06785 7.76632 6.99927 7.65572 6.95209C7.54513 6.90491 7.42618 6.88008 7.30581 6.87904C7.18545 6.878 7.06608 6.90078 6.95468 6.94604C6.84328 6.99131 6.74206 7.05815 6.65695 7.14267C6.57184 7.22719 6.50453 7.3277 6.45895 7.43833C6.41337 7.54896 6.39043 7.66749 6.39148 7.78702C6.39252 7.90655 6.41753 8.02467 6.46504 8.1345C6.51255 8.24432 6.58161 8.34365 6.66819 8.42669L8.74678 10.4908L6.66819 12.555C6.58161 12.638 6.51255 12.7373 6.46504 12.8472C6.41753 12.957 6.39252 13.0751 6.39148 13.1946C6.39043 13.3142 6.41337 13.4327 6.45895 13.5433C6.50453 13.654 6.57184 13.7545 6.65695 13.839C6.74206 13.9235 6.84328 13.9904 6.95468 14.0356C7.06608 14.0809 7.18545 14.1037 7.30581 14.1026C7.42618 14.1016 7.54513 14.0767 7.65572 14.0296C7.76632 13.9824 7.86635 13.9138 7.94997 13.8278L10.0286 11.7637L12.1071 13.8278C12.2781 13.9918 12.5071 14.0825 12.7448 14.0805C12.9825 14.0784 13.2098 13.9838 13.3779 13.8169C13.546 13.65 13.6413 13.4242 13.6434 13.1882C13.6454 12.9521 13.5541 12.7247 13.3889 12.555L11.3103 10.4908L13.3889 8.42669Z" fill="#9F9F9F"/>
</svg>
